<?xml version="1.0" encoding="UTF-8" standalone="no"?>
<!DOCTYPE svg PUBLIC "-//W3C//DTD SVG 1.1//EN"
 "http://www.w3.org/Graphics/SVG/1.1/DTD/svg11.dtd">
<!-- Generated by graphviz version 5.0.0 (20220707.1540)
 -->
<!-- Title: dependencies Pages: 1 -->
<svg width="290pt" height="174pt"
 viewBox="0.00 0.00 290.00 173.80" xmlns="http://www.w3.org/2000/svg" xmlns:xlink="http://www.w3.org/1999/xlink">
<g id="graph0" class="graph" transform="scale(1 1) rotate(0) translate(4 169.8)">
<title>dependencies</title>
<polygon fill="white" stroke="transparent" points="-4,4 -4,-169.8 286,-169.8 286,4 -4,4"/>
<text text-anchor="middle" x="141" y="-8.2" font-family="sans-serif" font-size="14.00">dependencies</text>
<g id="clust1" class="cluster">
<title>cluster_BookModule</title>
<polygon fill="none" stroke="black" stroke-dasharray="1,5" points="8,-32.8 8,-157.8 274,-157.8 274,-32.8 8,-32.8"/>
</g>
<g id="clust3" class="cluster">
<title>cluster_BookModule_imports</title>
<polygon fill="none" stroke="black" points="162,-40.8 162,-92.8 266,-92.8 266,-40.8 162,-40.8"/>
</g>
<g id="clust6" class="cluster">
<title>cluster_BookModule_providers</title>
<polygon fill="none" stroke="black" points="16,-40.8 16,-92.8 154,-92.8 154,-40.8 16,-40.8"/>
</g>
<!-- AuthModule -->
<g id="node1" class="node">
<title>AuthModule</title>
<polygon fill="#8dd3c7" stroke="black" points="257.55,-84.8 254.55,-88.8 233.55,-88.8 230.55,-84.8 170.45,-84.8 170.45,-48.8 257.55,-48.8 257.55,-84.8"/>
<text text-anchor="middle" x="214" y="-62.6" font-family="Times,serif" font-size="14.00">AuthModule</text>
</g>
<!-- BookModule -->
<g id="node2" class="node">
<title>BookModule</title>
<polygon fill="#8dd3c7" stroke="black" points="193.89,-149.8 190.89,-153.8 169.89,-153.8 166.89,-149.8 104.11,-149.8 104.11,-113.8 193.89,-113.8 193.89,-149.8"/>
<text text-anchor="middle" x="149" y="-127.6" font-family="Times,serif" font-size="14.00">BookModule</text>
</g>
<!-- AuthModule&#45;&gt;BookModule -->
<g id="edge1" class="edge">
<title>AuthModule&#45;&gt;BookModule</title>
<path fill="none" stroke="black" d="M182.08,-84.91C182.08,-84.91 182.08,-103.79 182.08,-103.79"/>
<polygon fill="black" stroke="black" points="178.58,-103.79 182.08,-113.79 185.58,-103.79 178.58,-103.79"/>
</g>
<!-- BookService -->
<g id="node3" class="node">
<title>BookService</title>
<ellipse fill="#fdb462" stroke="black" cx="85" cy="-66.8" rx="60.84" ry="18"/>
<text text-anchor="middle" x="85" y="-62.6" font-family="Times,serif" font-size="14.00">BookService</text>
</g>
<!-- BookService&#45;&gt;BookModule -->
<g id="edge2" class="edge">
<title>BookService&#45;&gt;BookModule</title>
<path fill="none" stroke="black" d="M124.99,-80.58C124.99,-80.58 124.99,-103.35 124.99,-103.35"/>
<polygon fill="black" stroke="black" points="121.49,-103.35 124.99,-113.35 128.49,-103.35 121.49,-103.35"/>
</g>
</g>
</svg>
