<?xml version="1.0" encoding="UTF-8" standalone="no"?>
<!DOCTYPE svg PUBLIC "-//W3C//DTD SVG 1.1//EN"
 "http://www.w3.org/Graphics/SVG/1.1/DTD/svg11.dtd">
<!-- Generated by graphviz version 5.0.0 (20220707.1540)
 -->
<!-- Title: dependencies Pages: 1 -->
<svg width="570pt" height="318pt"
 viewBox="0.00 0.00 570.00 317.80" xmlns="http://www.w3.org/2000/svg" xmlns:xlink="http://www.w3.org/1999/xlink">
<g id="graph0" class="graph" transform="scale(1 1) rotate(0) translate(4 313.8)">
<title>dependencies</title>
<polygon fill="white" stroke="transparent" points="-4,4 -4,-313.8 566,-313.8 566,4 -4,4"/>
<text text-anchor="middle" x="281" y="-8.2" font-family="sans-serif" font-size="14.00">dependencies</text>
<g id="clust1" class="cluster">
<title>cluster_AppModule</title>
<polygon fill="none" stroke="black" stroke-dasharray="1,5" points="170,-108.8 170,-301.8 442,-301.8 442,-108.8 170,-108.8"/>
</g>
<g id="clust3" class="cluster">
<title>cluster_AppModule_imports</title>
<polygon fill="none" stroke="black" points="316,-116.8 316,-236.8 422,-236.8 422,-116.8 316,-116.8"/>
</g>
<g id="clust6" class="cluster">
<title>cluster_AppModule_providers</title>
<polygon fill="none" stroke="black" points="178,-184.8 178,-236.8 308,-236.8 308,-184.8 178,-184.8"/>
</g>
<g id="clust7" class="cluster">
<title>cluster_AuthModule</title>
<polygon fill="none" stroke="black" stroke-dasharray="1,5" points="162,-32.8 162,-100.8 554,-100.8 554,-32.8 162,-32.8"/>
</g>
<g id="clust10" class="cluster">
<title>cluster_AuthModule_exports</title>
<polygon fill="none" stroke="black" points="444,-40.8 444,-92.8 546,-92.8 546,-40.8 444,-40.8"/>
</g>
<g id="clust12" class="cluster">
<title>cluster_AuthModule_providers</title>
<polygon fill="none" stroke="black" points="170,-40.8 170,-92.8 436,-92.8 436,-40.8 170,-40.8"/>
</g>
<g id="clust13" class="cluster">
<title>cluster_BookModule</title>
<polygon fill="none" stroke="black" stroke-dasharray="1,5" points="8,-108.8 8,-176.8 162,-176.8 162,-108.8 8,-108.8"/>
</g>
<g id="clust18" class="cluster">
<title>cluster_BookModule_providers</title>
<polygon fill="none" stroke="black" points="16,-116.8 16,-168.8 154,-168.8 154,-116.8 16,-116.8"/>
</g>
<!-- AuthModule -->
<g id="node1" class="node">
<title>AuthModule</title>
<polygon fill="#8dd3c7" stroke="black" points="412.55,-160.8 409.55,-164.8 388.55,-164.8 385.55,-160.8 325.45,-160.8 325.45,-124.8 412.55,-124.8 412.55,-160.8"/>
<text text-anchor="middle" x="369" y="-138.6" font-family="Times,serif" font-size="14.00">AuthModule</text>
</g>
<!-- BookModule -->
<g id="node2" class="node">
<title>BookModule</title>
<polygon fill="#8dd3c7" stroke="black" points="413.89,-228.8 410.89,-232.8 389.89,-232.8 386.89,-228.8 324.11,-228.8 324.11,-192.8 413.89,-192.8 413.89,-228.8"/>
<text text-anchor="middle" x="369" y="-206.6" font-family="Times,serif" font-size="14.00">BookModule</text>
</g>
<!-- AuthModule&#45;&gt;BookModule -->
<g id="edge7" class="edge">
<title>AuthModule&#45;&gt;BookModule</title>
<path fill="none" stroke="black" d="M369,-161.02C369,-161.02 369,-182.53 369,-182.53"/>
<polygon fill="black" stroke="black" points="365.5,-182.53 369,-192.53 372.5,-182.53 365.5,-182.53"/>
</g>
<!-- AppModule -->
<g id="node3" class="node">
<title>AppModule</title>
<polygon fill="#8dd3c7" stroke="black" points="410.66,-293.8 407.66,-297.8 386.66,-297.8 383.66,-293.8 327.34,-293.8 327.34,-257.8 410.66,-257.8 410.66,-293.8"/>
<text text-anchor="middle" x="369" y="-271.6" font-family="Times,serif" font-size="14.00">AppModule</text>
</g>
<!-- AuthModule&#45;&gt;AppModule -->
<g id="edge1" class="edge">
<title>AuthModule&#45;&gt;AppModule</title>
<path fill="none" stroke="black" d="M412.98,-148.8C417.87,-148.8 421.13,-148.8 421.13,-148.8 421.13,-148.8 421.13,-275.8 421.13,-275.8 421.13,-275.8 420.1,-275.8 420.1,-275.8"/>
<polygon fill="black" stroke="black" points="420.83,-272.3 410.83,-275.8 420.83,-279.3 420.83,-272.3"/>
</g>
<!-- JwtStrategy  -->
<g id="node5" class="node">
<title>JwtStrategy </title>
<polygon fill="#fb8072" stroke="black" points="537.6,-84.8 452.4,-84.8 452.4,-48.8 537.6,-48.8 537.6,-84.8"/>
<text text-anchor="middle" x="495" y="-62.6" font-family="Times,serif" font-size="14.00">JwtStrategy </text>
</g>
<!-- AuthModule&#45;&gt;JwtStrategy  -->
<g id="edge4" class="edge">
<title>AuthModule&#45;&gt;JwtStrategy </title>
<path fill="none" stroke="black" stroke-dasharray="5,2" d="M412.72,-136.8C449.11,-136.8 495,-136.8 495,-136.8 495,-136.8 495,-94.83 495,-94.83"/>
<polygon fill="black" stroke="black" points="498.5,-94.83 495,-84.83 491.5,-94.83 498.5,-94.83"/>
</g>
<!-- BookModule&#45;&gt;AppModule -->
<g id="edge2" class="edge">
<title>BookModule&#45;&gt;AppModule</title>
<path fill="none" stroke="black" d="M369,-228.91C369,-228.91 369,-247.79 369,-247.79"/>
<polygon fill="black" stroke="black" points="365.5,-247.79 369,-257.79 372.5,-247.79 365.5,-247.79"/>
</g>
<!-- AppService -->
<g id="node4" class="node">
<title>AppService</title>
<ellipse fill="#fdb462" stroke="black" cx="243" cy="-210.8" rx="56.75" ry="18"/>
<text text-anchor="middle" x="243" y="-206.6" font-family="Times,serif" font-size="14.00">AppService</text>
</g>
<!-- AppService&#45;&gt;AppModule -->
<g id="edge3" class="edge">
<title>AppService&#45;&gt;AppModule</title>
<path fill="none" stroke="black" d="M243,-228.91C243,-248.14 243,-275.8 243,-275.8 243,-275.8 317.04,-275.8 317.04,-275.8"/>
<polygon fill="black" stroke="black" points="317.04,-279.3 327.04,-275.8 317.04,-272.3 317.04,-279.3"/>
</g>
<!-- AuthService -->
<g id="node6" class="node">
<title>AuthService</title>
<ellipse fill="#fdb462" stroke="black" cx="369" cy="-66.8" rx="59.11" ry="18"/>
<text text-anchor="middle" x="369" y="-62.6" font-family="Times,serif" font-size="14.00">AuthService</text>
</g>
<!-- AuthService&#45;&gt;AuthModule -->
<g id="edge5" class="edge">
<title>AuthService&#45;&gt;AuthModule</title>
<path fill="none" stroke="black" d="M369,-84.81C369,-84.81 369,-114.65 369,-114.65"/>
<polygon fill="black" stroke="black" points="365.5,-114.65 369,-124.65 372.5,-114.65 365.5,-114.65"/>
</g>
<!-- JwtStrategy -->
<g id="node7" class="node">
<title>JwtStrategy</title>
<ellipse fill="#fdb462" stroke="black" cx="235" cy="-66.8" rx="56.77" ry="18"/>
<text text-anchor="middle" x="235" y="-62.6" font-family="Times,serif" font-size="14.00">JwtStrategy</text>
</g>
<!-- JwtStrategy&#45;&gt;AuthModule -->
<g id="edge6" class="edge">
<title>JwtStrategy&#45;&gt;AuthModule</title>
<path fill="none" stroke="black" d="M239,-84.83C239,-105.57 239,-136.8 239,-136.8 239,-136.8 315.35,-136.8 315.35,-136.8"/>
<polygon fill="black" stroke="black" points="315.35,-140.3 325.35,-136.8 315.35,-133.3 315.35,-140.3"/>
</g>
<!-- BookService -->
<g id="node8" class="node">
<title>BookService</title>
<ellipse fill="#fdb462" stroke="black" cx="85" cy="-142.8" rx="60.84" ry="18"/>
<text text-anchor="middle" x="85" y="-138.6" font-family="Times,serif" font-size="14.00">BookService</text>
</g>
<!-- BookService&#45;&gt;BookModule -->
<g id="edge8" class="edge">
<title>BookService&#45;&gt;BookModule</title>
<path fill="none" stroke="black" d="M142.71,-148.8C207.79,-148.8 304.66,-148.8 304.66,-148.8 304.66,-148.8 304.66,-210.8 304.66,-210.8 304.66,-210.8 313.96,-210.8 313.96,-210.8"/>
<polygon fill="black" stroke="black" points="313.96,-214.3 323.96,-210.8 313.96,-207.3 313.96,-214.3"/>
</g>
</g>
</svg>
